<mxfile host="app.diagrams.net" agent="Mozilla/5.0 (Windows NT 10.0; Win64; x64) AppleWebKit/537.36 (KHTML, like Gecko) Chrome/130.0.0.0 Safari/537.36" version="24.8.4">
  <diagram name="Page-1" id="GKIm5zr4rOBTvI0o6N9u">
    <mxGraphModel dx="1050" dy="1691" grid="1" gridSize="10" guides="1" tooltips="1" connect="1" arrows="1" fold="1" page="1" pageScale="1" pageWidth="827" pageHeight="1169" math="0" shadow="0">
      <root>
        <mxCell id="0" />
        <mxCell id="1" parent="0" />
        <mxCell id="iYpi32ViGrSebuN5KeIt-3" value="" style="edgeStyle=orthogonalEdgeStyle;rounded=0;orthogonalLoop=1;jettySize=auto;html=1;" parent="1" source="iYpi32ViGrSebuN5KeIt-1" target="iYpi32ViGrSebuN5KeIt-2" edge="1">
          <mxGeometry relative="1" as="geometry" />
        </mxCell>
        <mxCell id="iYpi32ViGrSebuN5KeIt-1" value="&lt;font style=&quot;font-size: 18px;&quot;&gt;start&lt;/font&gt;" style="ellipse;whiteSpace=wrap;html=1;" parent="1" vertex="1">
          <mxGeometry x="351" y="-50" width="120" height="80" as="geometry" />
        </mxCell>
        <mxCell id="iYpi32ViGrSebuN5KeIt-7" style="edgeStyle=orthogonalEdgeStyle;rounded=0;orthogonalLoop=1;jettySize=auto;html=1;entryX=1;entryY=0.5;entryDx=0;entryDy=0;" parent="1" source="iYpi32ViGrSebuN5KeIt-2" target="iYpi32ViGrSebuN5KeIt-4" edge="1">
          <mxGeometry relative="1" as="geometry">
            <mxPoint x="220" y="200" as="targetPoint" />
          </mxGeometry>
        </mxCell>
        <mxCell id="iYpi32ViGrSebuN5KeIt-8" value="" style="edgeStyle=orthogonalEdgeStyle;rounded=0;orthogonalLoop=1;jettySize=auto;html=1;" parent="1" source="iYpi32ViGrSebuN5KeIt-2" target="iYpi32ViGrSebuN5KeIt-5" edge="1">
          <mxGeometry relative="1" as="geometry" />
        </mxCell>
        <mxCell id="iYpi32ViGrSebuN5KeIt-9" style="edgeStyle=orthogonalEdgeStyle;rounded=0;orthogonalLoop=1;jettySize=auto;html=1;entryX=0;entryY=0.5;entryDx=0;entryDy=0;" parent="1" source="iYpi32ViGrSebuN5KeIt-2" target="iYpi32ViGrSebuN5KeIt-6" edge="1">
          <mxGeometry relative="1" as="geometry" />
        </mxCell>
        <mxCell id="iYpi32ViGrSebuN5KeIt-2" value="do you wish to check in,&lt;div&gt;check out&lt;/div&gt;&lt;div&gt;&amp;nbsp;or book dinner?&lt;/div&gt;" style="rhombus;whiteSpace=wrap;html=1;align=center;" parent="1" vertex="1">
          <mxGeometry x="334" y="390" width="160" height="150" as="geometry" />
        </mxCell>
        <mxCell id="iYpi32ViGrSebuN5KeIt-11" value="" style="edgeStyle=orthogonalEdgeStyle;rounded=0;orthogonalLoop=1;jettySize=auto;html=1;" parent="1" source="iYpi32ViGrSebuN5KeIt-4" target="iYpi32ViGrSebuN5KeIt-10" edge="1">
          <mxGeometry relative="1" as="geometry" />
        </mxCell>
        <mxCell id="iYpi32ViGrSebuN5KeIt-4" value="checkIn" style="shape=process;whiteSpace=wrap;html=1;backgroundOutline=1;" parent="1" vertex="1">
          <mxGeometry x="70" y="180" width="120" height="60" as="geometry" />
        </mxCell>
        <mxCell id="iYpi32ViGrSebuN5KeIt-19" value="" style="edgeStyle=orthogonalEdgeStyle;rounded=0;orthogonalLoop=1;jettySize=auto;html=1;" parent="1" source="iYpi32ViGrSebuN5KeIt-5" target="iYpi32ViGrSebuN5KeIt-18" edge="1">
          <mxGeometry relative="1" as="geometry" />
        </mxCell>
        <mxCell id="iYpi32ViGrSebuN5KeIt-5" value="dinner" style="shape=process;whiteSpace=wrap;html=1;backgroundOutline=1;" parent="1" vertex="1">
          <mxGeometry x="354" y="580" width="120" height="60" as="geometry" />
        </mxCell>
        <mxCell id="iYpi32ViGrSebuN5KeIt-6" value="checkOut" style="shape=process;whiteSpace=wrap;html=1;backgroundOutline=1;" parent="1" vertex="1">
          <mxGeometry x="620" y="170" width="120" height="60" as="geometry" />
        </mxCell>
        <mxCell id="heKLa-xPnCjZXeWw5VQV-2" style="edgeStyle=orthogonalEdgeStyle;rounded=0;orthogonalLoop=1;jettySize=auto;html=1;" parent="1" source="iYpi32ViGrSebuN5KeIt-10" target="iYpi32ViGrSebuN5KeIt-16" edge="1">
          <mxGeometry relative="1" as="geometry" />
        </mxCell>
        <mxCell id="iYpi32ViGrSebuN5KeIt-10" value="personalDetails" style="shape=process;whiteSpace=wrap;html=1;backgroundOutline=1;" parent="1" vertex="1">
          <mxGeometry x="70" y="260" width="120" height="60" as="geometry" />
        </mxCell>
        <mxCell id="iYpi32ViGrSebuN5KeIt-22" style="edgeStyle=orthogonalEdgeStyle;rounded=0;orthogonalLoop=1;jettySize=auto;html=1;entryX=0;entryY=0.5;entryDx=0;entryDy=0;" parent="1" source="iYpi32ViGrSebuN5KeIt-16" target="iYpi32ViGrSebuN5KeIt-1" edge="1">
          <mxGeometry relative="1" as="geometry">
            <Array as="points">
              <mxPoint x="20" y="460" />
              <mxPoint x="20" y="60" />
            </Array>
          </mxGeometry>
        </mxCell>
        <mxCell id="iYpi32ViGrSebuN5KeIt-16" value="quitProgram" style="shape=process;whiteSpace=wrap;html=1;backgroundOutline=1;" parent="1" vertex="1">
          <mxGeometry x="70" y="430" width="120" height="60" as="geometry" />
        </mxCell>
        <mxCell id="iYpi32ViGrSebuN5KeIt-21" value="" style="edgeStyle=orthogonalEdgeStyle;rounded=0;orthogonalLoop=1;jettySize=auto;html=1;" parent="1" source="iYpi32ViGrSebuN5KeIt-18" target="iYpi32ViGrSebuN5KeIt-20" edge="1">
          <mxGeometry relative="1" as="geometry" />
        </mxCell>
        <mxCell id="iYpi32ViGrSebuN5KeIt-18" value="eligible" style="shape=process;whiteSpace=wrap;html=1;backgroundOutline=1;" parent="1" vertex="1">
          <mxGeometry x="354" y="670" width="120" height="60" as="geometry" />
        </mxCell>
        <mxCell id="iYpi32ViGrSebuN5KeIt-25" value="" style="edgeStyle=orthogonalEdgeStyle;rounded=0;orthogonalLoop=1;jettySize=auto;html=1;" parent="1" source="iYpi32ViGrSebuN5KeIt-20" target="iYpi32ViGrSebuN5KeIt-23" edge="1">
          <mxGeometry relative="1" as="geometry" />
        </mxCell>
        <mxCell id="iYpi32ViGrSebuN5KeIt-20" value="findTable" style="shape=process;whiteSpace=wrap;html=1;backgroundOutline=1;" parent="1" vertex="1">
          <mxGeometry x="354" y="760" width="120" height="60" as="geometry" />
        </mxCell>
        <mxCell id="iYpi32ViGrSebuN5KeIt-24" style="edgeStyle=orthogonalEdgeStyle;rounded=0;orthogonalLoop=1;jettySize=auto;html=1;" parent="1" source="iYpi32ViGrSebuN5KeIt-23" edge="1">
          <mxGeometry relative="1" as="geometry">
            <mxPoint x="20" y="460" as="targetPoint" />
          </mxGeometry>
        </mxCell>
        <mxCell id="iYpi32ViGrSebuN5KeIt-23" value="quitProgram" style="shape=process;whiteSpace=wrap;html=1;backgroundOutline=1;" parent="1" vertex="1">
          <mxGeometry x="351" y="840" width="120" height="60" as="geometry" />
        </mxCell>
        <mxCell id="iYpi32ViGrSebuN5KeIt-27" value="billCalc" style="shape=process;whiteSpace=wrap;html=1;backgroundOutline=1;" parent="1" vertex="1">
          <mxGeometry x="610" y="270" width="120" height="60" as="geometry" />
        </mxCell>
        <mxCell id="iYpi32ViGrSebuN5KeIt-28" style="edgeStyle=orthogonalEdgeStyle;rounded=0;orthogonalLoop=1;jettySize=auto;html=1;entryX=0.647;entryY=0.007;entryDx=0;entryDy=0;entryPerimeter=0;" parent="1" source="iYpi32ViGrSebuN5KeIt-6" target="iYpi32ViGrSebuN5KeIt-27" edge="1">
          <mxGeometry relative="1" as="geometry" />
        </mxCell>
        <mxCell id="iYpi32ViGrSebuN5KeIt-33" style="edgeStyle=orthogonalEdgeStyle;rounded=0;orthogonalLoop=1;jettySize=auto;html=1;entryX=1;entryY=0.5;entryDx=0;entryDy=0;" parent="1" source="iYpi32ViGrSebuN5KeIt-30" target="iYpi32ViGrSebuN5KeIt-1" edge="1">
          <mxGeometry relative="1" as="geometry">
            <Array as="points">
              <mxPoint x="840" y="390" />
              <mxPoint x="840" y="60" />
            </Array>
          </mxGeometry>
        </mxCell>
        <mxCell id="iYpi32ViGrSebuN5KeIt-30" value="quitProgram" style="shape=process;whiteSpace=wrap;html=1;backgroundOutline=1;" parent="1" vertex="1">
          <mxGeometry x="630" y="390" width="120" height="60" as="geometry" />
        </mxCell>
        <mxCell id="Kp7KoYTgCoLYN2gOnkEI-1" style="edgeStyle=orthogonalEdgeStyle;rounded=0;orthogonalLoop=1;jettySize=auto;html=1;entryX=0.433;entryY=0.05;entryDx=0;entryDy=0;entryPerimeter=0;" parent="1" source="iYpi32ViGrSebuN5KeIt-27" target="iYpi32ViGrSebuN5KeIt-30" edge="1">
          <mxGeometry relative="1" as="geometry" />
        </mxCell>
        <mxCell id="heKLa-xPnCjZXeWw5VQV-1" value="creates a 2D array for each users data:&lt;div&gt;data[7][12]&lt;/div&gt;" style="rounded=0;whiteSpace=wrap;html=1;" parent="1" vertex="1">
          <mxGeometry x="351" y="210" width="120" height="60" as="geometry" />
        </mxCell>
        <mxCell id="kZ-SWJw0bnluUXhNLTbp-2" value="create a 2D array called tables[3][5]" style="rounded=0;whiteSpace=wrap;html=1;" parent="1" vertex="1">
          <mxGeometry x="351" y="290" width="120" height="60" as="geometry" />
        </mxCell>
        <mxCell id="qFn0x5bK_rS1hvPQuUpj-1" value="creates a 1D array called userDetails[12]" style="rounded=0;whiteSpace=wrap;html=1;" vertex="1" parent="1">
          <mxGeometry x="354" y="100" width="120" height="60" as="geometry" />
        </mxCell>
      </root>
    </mxGraphModel>
  </diagram>
</mxfile>
